<svg height="478" width="720" xmlns="http://www.w3.org/2000/svg">
<rect height="478" fill="#555" width="720"></rect>
<text fill="#7f7" font-family="Courier New" font-size="12" xml:space="preserve">
<tspan x="10" y="26">3 megabytes installed</tspan>
<tspan x="10" y="42"></tspan>
<tspan x="10" y="58">node_modules</tspan>
<tspan x="10" y="74">└─┬ sendgrid@5.0.0 </tspan>
<tspan x="10" y="90">  ├─┬ async.ensureasync@0.5.2 </tspan>
<tspan x="10" y="106">  │ └─┬ async.util.ensureasync@0.5.2 </tspan>
<tspan x="10" y="122">  │   ├── async.util.restparam@0.5.2 </tspan>
<tspan x="10" y="138">  │   └── async.util.setimmediate@0.5.2 </tspan>
<tspan x="10" y="154">  ├─┬ async.queue@0.5.2 </tspan>
<tspan x="10" y="170">  │ └─┬ async.util.queue@0.5.2 </tspan>
<tspan x="10" y="186">  │   ├── async.util.arrayeach@0.5.2 </tspan>
<tspan x="10" y="202">  │   ├── async.util.isarray@0.5.2 </tspan>
<tspan x="10" y="218">  │   ├── async.util.map@0.5.2 </tspan>
<tspan x="10" y="234">  │   ├── async.util.noop@0.5.2 </tspan>
<tspan x="10" y="250">  │   └── async.util.onlyonce@0.5.2 </tspan>
<tspan x="10" y="266">  ├── bottleneck@1.15.1 </tspan>
<tspan x="10" y="282">  ├─┬ debug@2.6.3 </tspan>
<tspan x="10" y="298">  │ └── ms@0.7.2 </tspan>
<tspan x="10" y="314">  ├── lodash.chunk@4.2.0 </tspan>
<tspan x="10" y="330">  ├─┬ mailparser@0.6.2 </tspan>
<tspan x="10" y="346">  │ ├─┬ encoding@0.1.12 </tspan>
<tspan x="10" y="362">  │ │ └── iconv-lite@0.4.15 </tspan>
<tspan x="10" y="378">  │ ├── mime@1.3.4 </tspan>
<tspan x="10" y="394">  │ ├─┬ mimelib@0.3.0 </tspan>
<tspan x="10" y="410">  │ │ └── addressparser@1.0.1 </tspan>
<tspan x="10" y="426">  │ └─┬ uue@3.1.0 </tspan>
<tspan x="10" y="442">  │   └── extend@3.0.0 </tspan>
<tspan x="10" y="458">  └── sendgrid-rest@2.3.0</tspan>
</text>
</svg>
